PathFileType	4	(X/Y/Z)	C:/Users/beibeiliu/ov580/test_trc/User3\sequence.38_training_dense_right.trc
DataRate	CameraRate	NumFrames	NumMarkers	Units	OrigDataRate	OrigDataStartFrame	OrigNumFrames
120	120	20	19	mm	120	131	260
Frame#	Time	ThumbCMC			ThumbMCP			ThumbIP			ThumbTip			IndexMCP			IndexPIP			IndexTip			MiddleMCP			MiddlePIP			MiddleTip			RingMCP			RingPIP			RingTip			PinkyMCP			PinkyPIP			PinkyTip			BackHand1			BackHand2			BackHand3	
		X0	Y0	Z0	X1	Y1	Z1	X2	Y2	Z2	X3	Y3	Z3	X4	Y4	Z4	X5	Y5	Z5	X6	Y6	Z6	X7	Y7	Z7	X8	Y8	Z8	X9	Y9	Z9	X10	Y10	Z10	X11	Y11	Z11	X12	Y12	Z12	X13	Y13	Z13	X14	Y14	Z14	X15	Y15	Z15	X16	Y16	Z16	X17	Y17	Z17	X18	Y18	Z18	
130	1.08333	98.6976	-2.09884	35.4984	97.206	14.3544	8.34556	96.1	20.1556	-21.5512	95.6827	17.0805	-48.2429	102.935	-4.25587	-48.1908	73.551	-9.21362	-58.8705	57.9476	-12.8145	-29.842	99.1034	-25.7016	-49.4555	65.0638	-29.7747	-49.3086	62.7815	-33.3403	-9.07368	96.3002	-47.6152	-46.3041	69.0637	-47.6152	-42.6722	65.0857	-46.3972	-9.09431	103.258	-63.7283	-35.0864	75.5904	-60.6468	-39.2889	68.1279	-58.2291	-10.8893	134.644	-50.0185	7.12023	131.502	-52.6702	35.3955	128.56	-16.8771	20.5141	
131	1.09167	98.4719	-4.31955	31.5186	95.0547	10.024	4.93261	95.2231	15.6542	-26.707	91.6219	11.3969	-49.6896	106.868	-7.65939	-46.7778	74.7723	-9.92995	-60.8501	60.2124	-14.6705	-30.8718	102.166	-27.7324	-50.1065	67.2273	-30.5009	-51.394	63.6195	-35.9651	-12.7844	98.5117	-48.5428	-44.5706	68.8052	-52.1374	-42.049	68.2363	-47.9566	-6.49312	103.937	-61.9451	-35.9369	76.0233	-63.7006	-39.1877	66.8836	-61.8595	-10.8458	134.327	-51.0124	3.05008	133.783	-50.7484	35.696	128.95	-18.7313	19.0901	
132	1.1	96.0437	-4.37838	32.1737	86.8307	9.65673	1.86505	84.1899	13.7234	-26.8215	82.139	6.30999	-52.5712	108.558	-10.065	-48.1026	81.0972	-14.4451	-65.5968	59.6519	-14.9494	-37.9859	103.145	-28.5915	-49.8395	69.5546	-34.4483	-53.6666	63.9857	-37.3997	-16.0348	101.754	-45.8887	-43.2676	71.5077	-53.5684	-43.6435	66.8493	-46.3875	-9.72199	105.517	-62.6854	-35.9877	79.4044	-65.6182	-41.6906	68.996	-63.2606	-13.4474	133.003	-47.8774	5.75118	134.541	-48.9674	31.8234	128.446	-16.6229	24.6278	
133	1.10833	90.8474	-3.22355	33.1086	78.746	4.41332	0.802981	70.0599	7.15625	-25.239	62.0348	6.2926	-49.6765	108.422	-5.81531	-48.0647	83.4361	-12.9375	-67.0909	59.655	-17.1782	-46.5522	101.486	-28.3133	-51.6004	68.5849	-31.6131	-54.8022	65.0529	-39.9444	-14.7693	99.8113	-49.8779	-48.5016	70.8158	-52.2672	-43.8036	67.194	-50.3329	-13.1177	107.12	-66.0345	-38.3246	78.6786	-68.2943	-41.9848	69.5719	-62.1507	-14.5507	135.941	-44.6929	1.40271	136.073	-49.0214	32.5058	127.916	-17.0795	20.9184	
134	1.11667	87.4149	-7.12953	31.9031	68.8433	-1.62612	9.80087	56.3363	3.4593	-17.2407	46.6561	1.03599	-41.5669	106.858	-4.40862	-45.2683	85.5313	-4.90935	-67.3113	57.9982	-19.8277	-48.46	99.4328	-24.0061	-50.15	65.8844	-35.1474	-54.0685	60.7272	-38.6915	-18.0344	100.664	-47.942	-46.9846	71.6176	-53.7374	-45.716	67.5839	-55.8468	-12.9816	110.708	-65.6613	-35.23	83.7016	-66.647	-45.2807	67.9342	-64.9224	-18.781	132.877	-45.3872	6.28824	136.636	-46.9404	37.9155	125.316	-14.456	25.1762	
135	1.125	85.6106	-7.30454	31.9788	63.883	-2.65631	9.41294	46.7367	2.7141	-10.9306	34.0286	2.44879	-36.4709	102.515	-4.27584	-39.3722	82.8534	-9.26509	-65.4737	55.5149	-21.4642	-49.7125	96.2669	-23.8862	-49.2269	63.5376	-32.7698	-53.1442	59.6174	-45.2537	-19.5709	99.47	-43.5172	-41.9457	71.5715	-57.0635	-46.1133	64.3126	-55.0285	-12.796	105.593	-61.2557	-36.9555	81.5709	-68.8416	-44.0805	65.6804	-68.1011	-15.0901	131.964	-42.1862	5.23842	136.114	-52.3141	36.5026	122.493	-15.0207	24.6865	
136	1.13333	85.1821	-11.5961	37.3649	60.5828	-3.20377	15.618	42.5807	3.86735	-10.655	27.8146	3.81342	-30.1979	98.2857	-4.44443	-39.0688	75.4735	-10.8662	-64.2139	49.4392	-22.9369	-44.1738	93.8541	-24.452	-48.13	61.7804	-32.8999	-53.6939	54.9379	-40.9425	-17.2521	94.4583	-46.8843	-43.9692	64.8751	-55.5514	-41.2278	62.8033	-57.7071	-10.0026	105.116	-65.1246	-32.7959	75.7528	-71.1675	-39.9286	64.3174	-70.153	-13.7891	128.985	-41.837	3.01577	135.632	-51.8785	34.8177	122.043	-17.9852	24.2535	
137	1.14167	85.0907	-11.3897	36.3559	59.7951	-4.08403	12.2196	41.3393	1.2522	-5.77454	25.749	1.785	-26.0972	94.6058	-5.53112	-44.5147	69.1052	-8.34332	-62.1533	45.2274	-19.034	-41.162	88.3269	-26.5766	-50.7163	59.0909	-34.6595	-53.0535	55.405	-45.0913	-13.5519	91.0055	-50.3084	-45.5381	62.8004	-60.0287	-38.6768	60.3318	-56.3564	-8.8848	100.582	-65.8807	-33.3027	73.6957	-72.4911	-37.6292	64.8	-66.4165	-6.29046	128.9	-43.9732	2.85775	132.303	-51.8254	33.041	120.849	-15.8875	24.3046	
138	1.15	82.7251	-11.1162	32.3053	59.9284	-6.75594	10.7981	39.2935	2.4536	-7.4837	26.2958	-0.232905	-31.0389	92.8223	-6.85456	-42.9291	67.1422	-14.0725	-61.8923	44.4227	-21.7336	-40.0391	90.8911	-30.4817	-48.5882	58.766	-37.7032	-51.6897	55.1064	-44.5663	-10.8759	89.4685	-49.5657	-44.8712	61.4812	-58.3457	-38.3431	63.759	-57.4239	-2.86575	99.7025	-65.193	-30.974	71.8852	-73.9184	-35.9069	65.852	-66.1349	-3.93584	130.051	-47.2809	6.08027	131.025	-49.7483	31.8842	118.792	-16.0028	25.5229	
139	1.15833	79.7657	-9.2432	34.7943	59.1756	-5.64794	10.9344	44.0129	-2.09983	-11.2802	34.3498	-4.53379	-33.7421	90.0402	-4.93984	-42.1135	64.0572	-12.2966	-60.0518	44.0539	-26.4942	-32.947	91.5244	-32.6409	-47.635	55.6425	-41.1682	-47.2661	56.6466	-43.4843	-7.68942	90.2819	-51.4857	-41.7532	63.5154	-62.1383	-37.5668	62.4016	-56.5086	-4.37162	97.1834	-66.0918	-36.0698	70.4539	-72.7901	-32.8311	68.1391	-70.5804	-4.56251	127.134	-43.5481	1.98966	132.111	-50.7427	37.0141	117.874	-17.5137	21.7088	
140	1.16667	81.5065	-11.0221	34.4961	63.4199	-5.27238	6.27883	50.2656	-0.335336	-17.3821	39.9045	-1.21522	-39.696	89.6679	-8.93494	-42.8969	63.0214	-16.5402	-59.2443	44.8318	-29.4904	-30.6239	86.6069	-30.3467	-49.0396	56.6842	-42.9673	-46.4019	57.196	-44.7331	-9.02222	90.0395	-49.3725	-42.025	63.3629	-60.0124	-37.4194	63.6703	-54.8999	-3.33244	98.8351	-66.8459	-34.4424	71.4349	-72.586	-33.4431	67.9549	-65.0579	-5.21397	127.132	-43.3729	2.993	129.913	-47.6582	32.0525	117.823	-13.5842	25.6091	
141	1.175	83.9421	-8.03027	32.9954	71.9228	-2.66787	6.78859	63.4176	7.22083	-22.9355	59.4402	1.67834	-44.36	87.6935	-6.76859	-44.8069	57.9952	-16.6048	-54.1971	44.4987	-24.0241	-27.962	87.5511	-31.8796	-49.8487	57.2959	-37.4909	-47.6658	56.8752	-42.3267	-5.26974	91.648	-53.0148	-41.2012	62.4376	-60.4892	-32.0796	68.4519	-54.2066	1.49959	101.277	-68.8817	-34.0184	69.1258	-70.3884	-33.2215	64.0787	-67.5493	-6.08593	128.012	-45.7371	6.32035	131.754	-51.0256	36.1928	118.285	-17.8209	22.697	
142	1.18333	89.9676	-4.13189	31.1207	83.1246	4.28711	6.65032	78.9547	12.1213	-22.5424	75.1754	9.39675	-43.994	90.9789	-8.14232	-45.7971	60.5411	-18.2477	-52.9387	47.144	-24.9691	-21.6912	89.9741	-29.3327	-46.2957	57.5182	-39.4666	-44.211	56.635	-45.1133	-7.01206	90.5681	-49.0898	-41.7288	62.2017	-58.3088	-31.5596	63.2684	-51.2984	-2.89068	100.992	-70.1092	-34.2706	70.9876	-67.3156	-35.9335	63.0958	-65.7081	-3.9458	129.454	-46.1503	4.81417	132.673	-54.4666	36.3521	122.663	-19.3973	21.31	
143	1.19167	97.2689	-4.07831	34.1831	93.9705	6.10996	9.51836	94.4219	15.461	-20.8674	91.0078	15.9531	-42.2572	94.0688	-9.16851	-44.1866	61.845	-15.8317	-50.6493	48.6026	-21.78	-21.1368	94.9026	-33.7995	-45.8627	61.656	-38.4412	-45.0526	53.8099	-40.1615	-6.8404	92.7278	-51.1453	-42.3731	65.2223	-57.9221	-35.1249	65.2046	-49.1661	1.02203	99.8137	-69.4587	-36.8679	73.1388	-67.1065	-37.8568	60.9944	-66.247	-10.5321	132.83	-47.8648	7.77993	132.844	-57.0296	36.1167	125.188	-22.4423	21.6469	
144	1.2	102.66	-3.76599	33.3897	103.756	12.2019	10.5447	104.913	20.1018	-18.3341	103.514	26.7205	-41.3287	97.8497	-10.0182	-44.84	66.3363	-12.0475	-49.058	50.4597	-18.2312	-23.4242	96.4558	-33.6529	-47.1614	62.0353	-36.5868	-42.973	54.0976	-36.8893	-7.65092	99.5102	-52.0249	-38.608	65.1383	-53.6072	-34.6077	63.1786	-51.646	-3.1447	102.803	-67.243	-33.6432	77.1876	-70.2409	-39.0233	60.4393	-61.8552	-11.5304	134.416	-49.5388	7.58997	134.967	-56.421	37.0194	128.378	-21.368	24.9635	
145	1.20833	105.571	-0.873596	37.0277	108.448	12.2008	11.1583	109.701	23.3238	-15.8752	109.906	30.4394	-38.1317	102.253	-10.7667	-41.4117	67.2381	-13.8052	-48.1614	51.9836	-19.0468	-18.3037	97.7437	-34.7399	-46.8548	64.8704	-37.0995	-43.2712	53.8486	-36.5098	-9.39948	98.3978	-49.9159	-41.3929	68.6101	-54.9428	-36.3102	63.8882	-49.4693	-5.75346	107.325	-73.2828	-31.0996	77.219	-70.6014	-39.2631	60.4248	-63.9515	-14.4748	135.015	-53.4033	6.43036	136.972	-58.1604	37.5231	131.133	-20.8337	22.3501	
146	1.21667	107.826	-6.00329	34.8263	109.757	9.40779	11.4781	115.812	24.2704	-20.5338	113.138	29.5408	-37.1817	102.871	-12.8116	-43.0389	67.1435	-11.579	-45.9807	53.5809	-18.8487	-21.8406	99.5175	-31.533	-47.4397	66.0796	-35.7029	-43.4126	56.8081	-36.4567	-5.77732	102.178	-52.2134	-39.8297	70.8638	-55.1238	-39.0204	65.7248	-47.5262	-1.65013	106.34	-72.139	-31.8699	79.7686	-67.6448	-41.3465	60.7533	-61.5045	-19.3661	135.697	-53.3288	5.86741	137.433	-58.438	38.801	135.795	-24.2019	22.0318	
147	1.225	108.398	-4.75309	35.8459	112.346	11.8272	8.8295	114.271	20.1708	-16.6975	115.488	32.0367	-39.6937	102.345	-9.57633	-43.8282	68.6187	-12.7498	-46.02	55.2062	-19.1245	-16.1555	100.248	-35.5978	-46.0281	65.3347	-34.5984	-42.0185	58.8863	-36.2537	-2.68107	99.3618	-54.0815	-41.4572	70.5048	-52.4123	-37.6021	65.6487	-50.4025	-3.29061	107.404	-73.9043	-32.8357	82.0592	-69.743	-41.6317	61.8693	-63.6088	-18.4082	136.374	-57.1015	8.08947	137.067	-56.4701	34.795	133.923	-20.9704	21.2761	
148	1.23333	110.021	-3.43781	33.743	109.937	10.4946	10.2825	112.421	18.2431	-19.248	111.372	26.5607	-44.4847	101.796	-12.885	-44.7755	68.8468	-16.7634	-46.1533	56.3768	-23.3945	-17.7085	99.8096	-32.241	-46.4235	66.7035	-34.2259	-42.2792	60.6273	-40.0843	-3.65115	100.173	-55.837	-40.0514	69.9564	-53.405	-35.7678	66.6605	-47.5048	-4.76216	107.156	-71.8589	-31.8353	82.0287	-69.3565	-40.8268	64.0096	-64.7702	-15.7906	136.539	-56.3214	8.64839	138.574	-54.5296	35.0373	135.156	-23.1292	22.9436	
149	1.24167	106.817	-6.24291	33.8751	104.933	9.57594	4.27809	102.104	17.3281	-22.7562	98.5287	18.2419	-45.703	104.486	-14.0839	-41.618	68.4379	-19.8597	-47.2723	57.3128	-21.166	-20.4583	98.1518	-32.8031	-46.9545	65.2979	-38.5422	-41.5916	60.2943	-39.0001	-5.87169	101.712	-52.1593	-39.2938	71.2779	-56.6209	-35.4444	71.1187	-50.6762	0.982843	106.554	-70.6162	-32.4635	78.436	-70.3223	-35.9575	68.815	-66.5271	-9.72401	138.382	-56.073	7.91456	138.356	-58.1947	36.2439	134.761	-19.6659	22.8871	
